<?xml version="1.0" encoding="utf-8"?>
<!-- Generator: Adobe Illustrator 24.2.3, SVG Export Plug-In . SVG Version: 6.00 Build 0)  -->
<svg version="1.1" id="Layer_1" xmlns="http://www.w3.org/2000/svg" xmlns:xlink="http://www.w3.org/1999/xlink" x="0px" y="0px"
	 viewBox="0 0 500 500" style="enable-background:new 0 0 500 500;" xml:space="preserve">
<style type="text/css">
	.st0{fill:#FF5800;}
</style>
<path class="st0" d="M45,34.5c-5.5,0-10,4.5-10,10v400c0,5.5,4.5,10,10,10h400c5.5,0,10-4.5,10-10v-400c0-5.5-4.5-10-10-10H45z
	 M55,54.5h380v380H55V54.5z"/>
<polyline class="st0" points="422.1,224.4 282.1,224.4 282.1,258.9 332.1,258.9 332.1,414.4 372.1,414.4 372.1,258.9 422.1,258.9 
	"/>
<path class="st0" d="M224.6,224.6c-31.1-0.1-66.7,9.3-66.7,53.1c0,57.3,77.2,57.3,77.2,83.2c0,2.4,1,20.3-26.2,20.3
	c-27.3,0-50-17.1-50-17.1v41.6c0,0,118.8,38.4,118.8-48.2c0-56.2-77.9-53.4-77.9-81.4c0-10.8,7.7-21,29-21s40.2,12.6,40.2,12.6
	l1.4-37.1C270.4,230.6,248.9,224.7,224.6,224.6z"/>
</svg>
